<svg width="18" height="18" viewBox="0 0 18 18" fill="none" xmlns="http://www.w3.org/2000/svg">
  <g clip-path="url(#clip0_4511_1691)">
    <path d="M9.11769 17.7059C9.70272 17.7059 10.2638 17.4735 10.6775 17.0598C11.0912 16.6461 11.3236 16.085 11.3236 15.5H6.9118C6.9118 16.085 7.14421 16.6461 7.55789 17.0598C7.97158 17.4735 8.53265 17.7059 9.11769 17.7059Z" fill="#7749F8"/>
    <path fill-rule="evenodd" clip-rule="evenodd" d="M9.11768 2.17427L8.23864 2.35184C7.24154 2.555 6.34525 3.09644 5.70149 3.88451C5.05773 4.67259 4.70603 5.65888 4.70592 6.67647C4.70592 7.36912 4.55812 9.09963 4.19967 10.8037C4.0232 11.6496 3.78496 12.5309 3.46842 13.2941H14.7669C14.4504 12.5309 14.2133 11.6507 14.0357 10.8037C13.6772 9.09963 13.5294 7.36912 13.5294 6.67647C13.5291 5.65907 13.1773 4.67303 12.5335 3.88519C11.8898 3.09734 10.9936 2.55607 9.99673 2.35294L9.11768 2.17316V2.17427ZM15.978 13.2941C16.2239 13.7871 16.5085 14.1776 16.8383 14.3971H1.39709C1.72687 14.1776 2.01143 13.7871 2.25739 13.2941C3.25004 11.3088 3.60298 7.64706 3.60298 6.67647C3.60298 4.00736 5.50004 1.77941 8.02026 1.27096C8.00486 1.1176 8.02178 0.962715 8.06993 0.816297C8.11807 0.669878 8.19637 0.535175 8.29977 0.420876C8.40317 0.306576 8.52938 0.215217 8.67026 0.152692C8.81113 0.0901659 8.96355 0.0578613 9.11768 0.0578613C9.27181 0.0578613 9.42423 0.0901659 9.56511 0.152692C9.70599 0.215217 9.8322 0.306576 9.9356 0.420876C10.039 0.535175 10.1173 0.669878 10.1654 0.816297C10.2136 0.962715 10.2305 1.1176 10.2151 1.27096C11.4617 1.52453 12.5824 2.20114 13.3874 3.18622C14.1924 4.1713 14.6322 5.40431 14.6324 6.67647C14.6324 7.64706 14.9853 11.3088 15.978 13.2941Z" fill="#7749F8"/>
  </g>
  <defs>
    <clipPath id="clip0_4511_1691">
      <rect width="17.6471" height="17.6471" fill="white" transform="translate(0.294128 0.0588379)"/>
    </clipPath>
  </defs>
</svg>