<svg width="960" height="247" viewBox="0 0 960 247" fill="none" xmlns="http://www.w3.org/2000/svg">
<path d="M0 17L137 47L274 20L411 67L549 76L686 47L823 0L960 29V247H823H686H549H411H274H137H0V17Z" fill="#5AB1A3"/>
<path d="M0 114L137 52L274 99L411 110L549 36L686 33L823 111L960 90V247H823H686H549H411H274H137H0V114Z" fill="#519F92"/>
<path d="M0 106L137 85L274 82L411 80L549 92L686 86L823 88L960 99V247H823H686H549H411H274H137H0V106Z" fill="#488E82"/>
<path d="M0 150L137 131L274 134L411 170L549 119L686 162L823 132L960 124V247H823H686H549H411H274H137H0V150Z" fill="#3F7D72"/>
<path d="M0 146L137 150L274 175L411 201L549 196L686 156H823L960 170V247H823H686H549H411H274H137H0V146Z" fill="#366C63"/>
<path d="M0 226L137 216L274 219L411 227L549 217L686 231L823 188L960 186V247H823H686H549H411H274H137H0V226Z" fill="#2E5C54"/>
</svg>
