<svg width="506" height="506" viewBox="0 0 506 506" fill="none" xmlns="http://www.w3.org/2000/svg">
<g clip-path="url(#clip0_4978_958)">
<rect width="506" height="506" rx="128" fill="#2C0B33"/>
<circle cx="476.5" cy="30.5" r="259.5" fill="url(#paint0_radial_4978_958)" fill-opacity="0.66"/>
<g filter="url(#filter0_d_4978_958)">
<path d="M310.812 404.188V299.353L381.544 257.25V251.355L311.233 293.458V259.776L278.814 278.721V423.555L310.812 404.188Z" fill="#FFFFE8"/>
<path d="M381.544 362.927V277.879V251.355L310.812 293.879V259.776L385.755 216.41C406.649 204.2 413.543 221.884 413.543 231.988V344.402L381.544 362.927Z" fill="#FF765B"/>
<path d="M353.757 346.928L381.545 362.927V257.25L353.757 273.67V346.928Z" fill="#2F3A4F"/>
<path d="M436.699 149.467L248.5 256.408V466.079L310.812 429.45V404.188L278.814 423.555V278.722C290.322 271.986 369.756 225.553 373.966 223.147C389.544 214.243 413.542 197.464 413.542 240.83V344.402L381.965 362.928V388.61L436.699 356.612V149.467Z" fill="#7FBEB4"/>
<path d="M381.545 362.927L353.757 346.928V370.927L381.545 388.61V362.927Z" fill="#385B6B"/>
<path d="M273.762 146.941L247.237 131.363V102.733L273.762 117.469V146.941Z" fill="#3D5F70"/>
<path d="M302.813 105.259L247.237 73.261V102.733L302.813 134.31V105.259Z" fill="#E02800"/>
<path d="M323.864 146.099L348.704 131.784L302.812 105.259V134.31L323.864 146.099Z" fill="#2F3A4F"/>
<path d="M406.385 138.941V160.835L426.174 149.888L406.385 138.941Z" fill="#2D0B34"/>
<path d="M406.385 160.835V131.784L248.5 224.41V249.671L406.385 160.835Z" fill="#FFBF68"/>
<path d="M406.385 131.784L276.709 207.99L247.237 190.728L348.705 131.784L247.237 73.2611L223.239 88.4181L195.03 71.156L248.5 40L406.385 131.784Z" fill="#FF765B"/>
<path d="M406.385 131.784L436.699 149.467L248.5 256.408V249.671L426.173 149.888L406.385 138.941V131.784Z" fill="#FFFFE8"/>
<path d="M142.822 237.883L115.035 221.884V332.345L142.822 316.194V237.883Z" fill="#C5DDC3"/>
<path d="M115.877 330.929L115.035 221.883L84.2998 204.621V330.087C84.2998 341.539 91.5976 350.297 95.2465 353.244L185.767 405.872V372.19L115.877 330.929Z" fill="url(#paint1_linear_4978_958)"/>
<path d="M185.767 342.297L142.822 315.351L120.508 327.982L185.767 366.717V342.297Z" fill="#FFFFE8"/>
<path d="M185.767 366.717V261.039L217.765 279.143L217.344 423.976L185.767 405.872V372.19L115.876 330.929L120.508 327.982L185.767 366.717Z" fill="#60A4B2"/>
<path d="M89.7729 161.256V132.205L248.5 224.41V250.092L189.556 215.989L187.872 218.515L143.664 193.254L144.506 191.57L89.7729 161.256Z" fill="#60A4B2"/>
<path d="M145.349 191.991L142.401 195.78L60.7222 150.309L89.773 132.626V143.152L73.353 151.993L145.349 191.991Z" fill="#3B5A6B"/>
<path d="M60.7222 358.717V150.309L142.401 195.78V237.883L84.7207 205.464V332.614C87.7521 346.086 93.5622 351.981 96.0884 353.244L217.344 423.976V279.564L186.188 261.881V220.621L248.5 256.408V466.5L60.7222 358.717Z" fill="#2E2543"/>
<path d="M189.135 135.765V109.048L148.296 132.626L170.61 146.52L189.135 135.765Z" fill="#FFBF68"/>
<path d="M158.821 92.2073L89.7729 132.626L248.5 224.41L276.709 207.99L148.296 132.626L189.135 109.048L158.821 92.2073Z" fill="#FFFFE8"/>
<path d="M248.5 250.092V256.408L186.188 220.621L189.556 215.989L248.5 250.092Z" fill="#3B5A6B"/>
<path d="M73.353 151.993L89.7731 143.152V161.256L73.353 151.993Z" fill="#2D0B34"/>
<path d="M194.893 132.69L170 145.789L247.211 191L324 146.211L273.792 117.479V147.056L247.211 131.423V73.1127L223.162 88.3239L194.893 71V132.69Z" fill="#2D0B34"/>
<path d="M381 387.365L310 428V298.554L353.107 273V369.77L381 387.365Z" fill="#2D0B34"/>
<path d="M142 195.528L143.667 193L187 218.281L185.333 220.809V343L142 315.191V195.528Z" fill="#2D0B34"/>
</g>
</g>
<defs>
<filter id="filter0_d_4978_958" x="25.7222" y="13" width="445.977" height="496.5" filterUnits="userSpaceOnUse" color-interpolation-filters="sRGB">
<feFlood flood-opacity="0" result="BackgroundImageFix"/>
<feColorMatrix in="SourceAlpha" type="matrix" values="0 0 0 0 0 0 0 0 0 0 0 0 0 0 0 0 0 0 127 0" result="hardAlpha"/>
<feOffset dy="8"/>
<feGaussianBlur stdDeviation="17.5"/>
<feColorMatrix type="matrix" values="0 0 0 0 0 0 0 0 0 0 0 0 0 0 0 0 0 0 0.16 0"/>
<feBlend mode="normal" in2="BackgroundImageFix" result="effect1_dropShadow_4978_958"/>
<feBlend mode="normal" in="SourceGraphic" in2="effect1_dropShadow_4978_958" result="shape"/>
</filter>
<radialGradient id="paint0_radial_4978_958" cx="0" cy="0" r="1" gradientUnits="userSpaceOnUse" gradientTransform="translate(476.5 30.5) rotate(90) scale(259.5)">
<stop stop-color="white" stop-opacity="0.6"/>
<stop offset="1" stop-color="white" stop-opacity="0"/>
</radialGradient>
<linearGradient id="paint1_linear_4978_958" x1="135.034" y1="204.621" x2="135.034" y2="405.872" gradientUnits="userSpaceOnUse">
<stop stop-color="#5398A1"/>
<stop offset="1" stop-color="#385A6A"/>
</linearGradient>
<clipPath id="clip0_4978_958">
<rect width="506" height="506" rx="128" fill="white"/>
</clipPath>
</defs>
</svg>
