<svg width="506" height="507" viewBox="0 0 506 507" fill="none" xmlns="http://www.w3.org/2000/svg">
<path d="M322.5 432.5V308L406.5 258V251L323 301V261L284.5 283.499V455.499L322.5 432.5Z" fill="#FFFFE8"/>
<path d="M406.5 383.5V282.499V250.999L322.5 301.5V261L411.5 209.5C436.314 195 444.5 216 444.5 227.999V361.5L406.5 383.5Z" fill="#FF765B"/>
<path d="M373.5 364.5L406.5 383.5V258L373.5 277.5V364.5Z" fill="#2F3A4F"/>
<path d="M472 130L248.5 257V506L322.5 462.5V432.5L284.5 455.5V283.5C298.167 275.5 392.5 220.358 397.5 217.5C416 206.926 444.5 187 444.5 238.5V361.5L407 383.5V414L472 376V130Z" fill="#7FBEB4"/>
<path d="M406.5 383.5L373.5 364.5V393L406.5 414V383.5Z" fill="#385B6B"/>
<path d="M185 110L155.5 125.5L247 179L338 126L278.5 92V127L247 108.5V39.5L218.5 57.5L185 37V110Z" fill="#2D0B34"/>
<path d="M278.5 127L247 108.5V74.5L278.5 92V127Z" fill="#3D5F70"/>
<path d="M313 77.5L247 39.5V74.5L313 112V77.5Z" fill="#E02800"/>
<path d="M338 126L367.5 109L313 77.5V112L338 126Z" fill="#2F3A4F"/>
<path d="M436 117.5V143.5L459.5 130.5L436 117.5Z" fill="#2D0B34"/>
<path d="M436 143.5V109L248.5 219V249L436 143.5Z" fill="#FFBF68"/>
<path d="M436 109L282 199.5L247 179L367.5 109L247 39.5L218.5 57.5L185 37L248.5 0L436 109Z" fill="#FF765B"/>
<path d="M436 109L472 130L248.5 257V249L459.5 130.5L436 117.5V109Z" fill="#FFFFE8"/>
<path d="M406.5 414L322.5 462.5V308L373.5 277.5V393L406.5 414Z" fill="#2D0B34"/>
<path d="M123 235L90 216V347.18L123 328V235Z" fill="#C5DDC3"/>
<path d="M91 345.5L90 216L53.5 195.5V344.5C53.5 358.1 62.1667 368.5 66.5 372L174 434.5V394.5L91 345.5Z" fill="url(#paint0_linear_4728_785)"/>
<path d="M174 359L123 327L96.5 342L174 388V359Z" fill="#FFFFE8"/>
<path d="M174 388V262.5L212 284L211.5 456L174 434.5V394.5L91 345.5L96.5 342L174 388Z" fill="#60A4B2"/>
<path d="M60 144V109.5L248.5 219V249.5L178.5 209L176.5 212L124 182L125 180L60 144Z" fill="#60A4B2"/>
<path d="M126 180.5L122.5 185L25.5 131L60 110V122.5L40.5 133L126 180.5Z" fill="#3B5A6B"/>
<path d="M122.5 185L124.5 182L176.5 212L174.5 215V360L122.5 327V185Z" fill="#2D0B34"/>
<path d="M25.5 378.5V131L122.5 185V235L54 196.5V347.5C57.6 363.5 64.5 370.5 67.5 372L211.5 456V284.5L174.5 263.5V214.5L248.5 257V506.5L25.5 378.5Z" fill="#2E2543"/>
<path d="M178 113.728V82L129.5 110L156 126.5L178 113.728Z" fill="#FFBF68"/>
<path d="M142 62L60 110L248.5 219L282 199.5L129.5 110L178 82L142 62Z" fill="#FFFFE8"/>
<path d="M248.5 249.5V257L174.5 214.5L178.5 209L248.5 249.5Z" fill="#3B5A6B"/>
<path d="M40.5 133L60 122.5V144L40.5 133Z" fill="#2D0B34"/>
<defs>
<linearGradient id="paint0_linear_4728_785" x1="113.75" y1="195.5" x2="113.75" y2="434.5" gradientUnits="userSpaceOnUse">
<stop stop-color="#5398A1"/>
<stop offset="1" stop-color="#385A6A"/>
</linearGradient>
</defs>
</svg>
